<svg xmlns="http://www.w3.org/2000/svg" width="253.134" height="84.314" viewBox="0 0 253.134 84.314"><g transform="translate(-61.112 -291.686)"><g transform="translate(166 310.375)"><path d="M8.222,7.606H1.16A1.151,1.151,0,0,1,0,6.483V1.123A1.143,1.143,0,0,1,1.16,0H8.222A1.142,1.142,0,0,1,9.381,1.123v5.36A1.142,1.142,0,0,1,8.222,7.606Zm-5.9-5.359V5.366H7.069V2.247Z" transform="translate(73.992 30.181)" fill="#e3e9f2"/><path d="M8.222,7.606H1.16A1.143,1.143,0,0,1,0,6.483V1.123A1.143,1.143,0,0,1,1.16,0H8.222a1.143,1.143,0,0,1,1.16,1.123v5.36A1.143,1.143,0,0,1,8.222,7.606Zm-5.9-5.359V5.366H7.07V2.247Z" transform="translate(85.931 30.181)" fill="#e3e9f2"/><path d="M8.222,7.605H1.16A1.152,1.152,0,0,1,0,6.481V1.123A1.143,1.143,0,0,1,1.16,0H8.222A1.142,1.142,0,0,1,9.381,1.123V6.481A1.143,1.143,0,0,1,8.222,7.605Zm-5.9-5.359v3.12H7.069V2.246Z" transform="translate(73.992 42.584)" fill="#e3e9f2"/><path d="M8.222,7.605H1.16A1.144,1.144,0,0,1,0,6.481V1.123A1.143,1.143,0,0,1,1.16,0H8.222a1.143,1.143,0,0,1,1.16,1.123V6.481A1.144,1.144,0,0,1,8.222,7.605Zm-5.9-5.359v3.12H7.07V2.246Z" transform="translate(85.931 42.584)" fill="#e3e9f2"/><path d="M98.023,63.72H1.16A1.143,1.143,0,0,1,0,62.6V2.159A1.143,1.143,0,0,1,1.16,1.038H29.631A1.142,1.142,0,0,1,30.79,2.159V8.24a1.177,1.177,0,0,1,.58-.154h9.237A1.169,1.169,0,0,1,41.64,8.7l3.237,6.214a1.09,1.09,0,0,1-.044,1.092,1.149,1.149,0,0,1-.982.531h-.46v4.022h.46a1.171,1.171,0,0,1,1,.555,1.089,1.089,0,0,1,.013,1.117L41.406,28.2v9.02a39.464,39.464,0,0,1,9.454,1.363,32.558,32.558,0,0,1,7.8,3.261A25.994,25.994,0,0,1,68.807,52.294V24.767a1.143,1.143,0,0,1,1.159-1.123H73.33V9.2a1.144,1.144,0,0,1,1.16-1.124h8.379V1.122a1.16,1.16,0,0,1,2.319,0V8.079H93.5A1.144,1.144,0,0,1,94.658,9.2v14.44h3.364a1.139,1.139,0,0,1,1.158,1.117V62.6A1.142,1.142,0,0,1,98.023,63.72ZM71.132,25.884v35.6h25.73v-35.6H71.132ZM41.413,39.477v22h27.4a20.117,20.117,0,0,0-7.287-14.8C57.949,43.547,51.556,39.758,41.413,39.477Zm-9.23-.049V61.48h6.925V39.428ZM2.313,3.271v58.2H29.865V28.161l-3.113-5.975a1.1,1.1,0,0,1,.045-1.093,1.164,1.164,0,0,1,.983-.531h.7V16.54h-.7a1.169,1.169,0,0,1-1-.556,1.089,1.089,0,0,1-.013-1.117l1.713-2.953V3.271ZM32.182,34.93v2.257h6.925V34.93Zm-.006-5.914v3.673H39.1V29.016ZM29.663,22.8l2.073,3.974h7.844l2.3-3.974ZM75.655,10.32V23.639H92.345V10.32ZM30.8,16.54v4.022H41.079V16.54Zm1.265-6.22L29.8,14.226h12.14L39.907,10.32Z" transform="translate(0.655 1.392)" fill="#e3e9f2"/><path d="M15.121,0H1.158A1.142,1.142,0,0,0,0,1.122,1.142,1.142,0,0,0,1.158,2.245H15.121a1.142,1.142,0,0,0,1.158-1.123A1.141,1.141,0,0,0,15.121,0Z" transform="translate(7.75 9.589)" fill="#e3e9f2"/><path d="M9.571,0H1.16A1.142,1.142,0,0,0,0,1.123,1.143,1.143,0,0,0,1.16,2.247H9.571a1.143,1.143,0,0,0,1.158-1.123A1.146,1.146,0,0,0,9.571,0Z" transform="translate(79.29 15.619)" fill="#e3e9f2"/><path d="M15.121,0H1.158A1.142,1.142,0,0,0,0,1.123,1.141,1.141,0,0,0,1.158,2.245H15.121a1.142,1.142,0,0,0,1.158-1.122A1.142,1.142,0,0,0,15.121,0Z" transform="translate(7.75 17.261)" fill="#e3e9f2"/><path d="M15.121,0H1.158A1.142,1.142,0,0,0,0,1.123,1.141,1.141,0,0,0,1.158,2.245H15.121a1.142,1.142,0,0,0,1.158-1.122A1.142,1.142,0,0,0,15.121,0Z" transform="translate(7.75 24.939)" fill="#e3e9f2"/><path d="M15.121,0H1.158A1.143,1.143,0,0,0,0,1.123,1.143,1.143,0,0,0,1.158,2.247H15.121a1.143,1.143,0,0,0,1.158-1.123A1.142,1.142,0,0,0,15.121,0Z" transform="translate(7.75 32.605)" fill="#e3e9f2"/><path d="M15.121,0H1.158A1.143,1.143,0,0,0,0,1.123,1.142,1.142,0,0,0,1.158,2.247H15.121a1.142,1.142,0,0,0,1.158-1.123A1.143,1.143,0,0,0,15.121,0Z" transform="translate(7.75 40.277)" fill="#e3e9f2"/><path d="M15.121,0H1.158A1.142,1.142,0,0,0,0,1.122,1.142,1.142,0,0,0,1.158,2.245H15.121a1.142,1.142,0,0,0,1.158-1.123A1.141,1.141,0,0,0,15.121,0Z" transform="translate(7.75 47.95)" fill="#e3e9f2"/><path d="M1.153,2.241c9.268,0,14.8,5.773,14.8,11.358a1.16,1.16,0,0,0,2.319,0C18.277,6.916,11.876,0,1.16,0A1.143,1.143,0,0,0,0,1.123,1.131,1.131,0,0,0,1.153,2.241Z" transform="translate(43.36 47.18)" fill="#e3e9f2"/><path d="M1.159,15.941a1.14,1.14,0,0,0,1.135-.922l2.519-13.7a1.126,1.126,0,0,0-.932-1.3,1.161,1.161,0,0,0-1.342.9L.018,14.622a1.125,1.125,0,0,0,.934,1.3,1.253,1.253,0,0,0,.206.019Z" transform="translate(50.895 18.325)" fill="#e3e9f2"/><path d="M1.162,15.315a1.151,1.151,0,0,0,1.084-.731L7.184,1.51A1.112,1.112,0,0,0,6.5.069,1.168,1.168,0,0,0,5.012.733L.071,13.808a1.115,1.115,0,0,0,.687,1.441,1.377,1.377,0,0,0,.4.066Z" transform="translate(57.785 20.592)" fill="#e3e9f2"/></g><g transform="translate(60.5 291)"><path d="M13.446,9.176H1.219A1.22,1.22,0,0,1,0,7.958V1.219A1.22,1.22,0,0,1,1.219,0H13.446a1.22,1.22,0,0,1,1.219,1.219V7.958A1.22,1.22,0,0,1,13.446,9.176ZM2.435,2.429v4.31h9.8V2.429Z" transform="translate(32.929 15.253)" fill="#e3e9f2"/><path d="M1.219,6.919A1.221,1.221,0,0,0,2.437,5.7V1.217A1.219,1.219,0,0,0,0,1.217V5.7A1.224,1.224,0,0,0,1.219,6.919Z" transform="translate(6.769 56.163)" fill="#e3e9f2"/><path d="M97.367,84.057h-90a1.22,1.22,0,0,1-1.219-1.219V76.477A7.374,7.374,0,0,1,0,69.22V48.146a7.37,7.37,0,0,1,14.739,0V69.22a7.373,7.373,0,0,1-6.151,7.257V81.62H21.114V28.3a1.219,1.219,0,0,1,1.219-1.217h4.118V9.3A1.219,1.219,0,0,1,27.67,8.085H51.636A1.219,1.219,0,0,1,52.854,9.3V27.094h4.118A1.218,1.218,0,0,1,58.19,28.31V59.468H71.248V30.3a.339.339,0,0,1,.011-.077c0-.012.005-.023.007-.035l-4.693-9.31a1.219,1.219,0,0,1,.046-1.185,1.2,1.2,0,0,1,1.032-.576h1.543V11.957H67.651a1.222,1.222,0,0,1-1.046-.6,1.206,1.206,0,0,1-.014-1.211L71.929.622A1.209,1.209,0,0,1,72.988,0h13.7a1.209,1.209,0,0,1,1.086.67l4.807,9.52A1.211,1.211,0,0,1,91.5,11.951H90.315v7.162H91.5a1.221,1.221,0,0,1,1.059,1.815L87.354,30.2c0,.012.006.024.009.035a.2.2,0,0,1,.011.059V59.461h10a1.207,1.207,0,0,1,.864.359,1.187,1.187,0,0,1,.346.853V82.839A1.219,1.219,0,0,1,97.367,84.057ZM44.459,61.891V81.62H96.154V61.891ZM23.544,77.364V81.62H42.029V77.364Zm0-6.747v4.31H42.029v-4.31ZM7.376,64.122A1.22,1.22,0,0,1,8.6,65.341v8.647a4.925,4.925,0,0,0,3.721-4.768V48.146a4.939,4.939,0,0,0-9.878,0V69.214a4.942,4.942,0,0,0,3.721,4.775V65.341A1.22,1.22,0,0,1,7.376,64.122ZM23.544,61.6v6.589H42.029V61.6ZM73.67,44.008V59.461H84.946V44.008ZM23.544,54.86v4.31h32.21V54.86Zm0-9.149v6.72h32.21V45.71Zm0-6.741V43.28h32.21V38.969Zm50.125.412v2.2H84.946v-2.2Zm0-7.873V36.95H84.946V31.508ZM23.544,29.516v7.025h32.21V29.516H23.544ZM69.63,21.544l3.577,7.091H85.448l3.979-7.091H69.63ZM28.886,10.52V27.086H50.423V10.52Zm52.087,1.431v7.162h6.912V11.951Zm-9.349-.007v7.165h6.912V11.944Zm2.08-9.52L69.73,9.514h.2a1.17,1.17,0,0,1,.482-.105H89.1a1.247,1.247,0,0,1,.418.086l-3.57-7.071H73.7Z" transform="translate(0.612 0.686)" fill="#e3e9f2"/><path d="M9.4,7.376H1.219A1.22,1.22,0,0,1,0,6.158V1.219A1.22,1.22,0,0,1,1.219,0H9.4a1.219,1.219,0,0,1,1.217,1.219V6.158A1.219,1.219,0,0,1,9.4,7.376ZM2.429,2.431V4.939H8.183V2.431Z" transform="translate(48.183 66.285)" fill="#e3e9f2"/><path d="M9.4,7.376H1.219A1.22,1.22,0,0,1,0,6.158V1.219A1.22,1.22,0,0,1,1.219,0H9.4A1.228,1.228,0,0,1,10.62,1.219V6.158A1.22,1.22,0,0,1,9.4,7.376ZM2.431,2.431V4.939H8.183V2.431Z" transform="translate(65.449 66.285)" fill="#e3e9f2"/><path d="M9.4,7.376H1.219A1.22,1.22,0,0,1,0,6.158V1.219A1.22,1.22,0,0,1,1.219,0H9.4A1.22,1.22,0,0,1,10.62,1.219V6.158A1.22,1.22,0,0,1,9.4,7.376ZM2.431,2.437V4.945H8.183V2.437Z" transform="translate(82.71 66.285)" fill="#e3e9f2"/></g><g transform="translate(271 332)"><path d="M40.332,43.164H.832A.9.9,0,0,1,0,42.332.834.834,0,0,1,.832,41.5H10.5V38.582a6.749,6.749,0,0,1-5.918-6.668,6.852,6.852,0,0,1,3.668-6A15.36,15.36,0,0,1,4.582,15.832,15.784,15.784,0,0,1,31.476,4.573a15.612,15.612,0,0,1,4.687,11.009.559.559,0,0,1,.223.051.307.307,0,0,0,.109.031A10.206,10.206,0,0,1,41.4,19.477a10.391,10.391,0,0,1-7.738,16.269V41.41h6.668a.907.907,0,0,1,.833.923A.834.834,0,0,1,40.332,43.164ZM18.168,31.41v.418A6.748,6.748,0,0,1,12.25,38.5h.086v3h7.331V31.578c-.256-.044-.517-.066-.769-.087S18.411,31.45,18.168,31.41Zm6.081-.25a16.415,16.415,0,0,1-2.918.418v9.914h10.75v-5.75A10.216,10.216,0,0,1,24.25,31.16Zm-9,2.083L9.168,36.41a5.018,5.018,0,0,0,2.25.5,5.076,5.076,0,0,0,4.749-3.336ZM6.664,30.078a4.366,4.366,0,0,0-.331,1.75,4.826,4.826,0,0,0,2.332,4.164l5.917-3.082Zm29.5-1.836-6,5.418a8.994,8.994,0,0,0,5.418,0l1.582-4.5ZM37.5,29.328,36,33.5A10.5,10.5,0,0,0,39.5,31ZM32.832,25.5a15.023,15.023,0,0,1-6.918,5.082A8.994,8.994,0,0,0,29.832,33.5l6-5.5ZM16.5,32.66l-.582.25.419.167A.664.664,0,0,1,16.5,32.66Zm-7-5.5a5.194,5.194,0,0,0-2.669,2.5l8.332,3,1.25-.668v-.168a2.584,2.584,0,0,0-.082-.832A15.548,15.548,0,0,1,9.5,27.16ZM41.336,23.5l-2.668,2.417L37.586,29l2.083,1.75A8.287,8.287,0,0,0,41.5,25.328,6.743,6.743,0,0,0,41.336,23.5ZM20.75,22.328V29.91a14.465,14.465,0,0,0,11.332-6.081Zm-4.169-.582-4,5.75a14.192,14.192,0,0,0,7.582,2.414V22.246Zm21.582,4.582L36.332,28l1,.832Zm-1.992-9a15.856,15.856,0,0,1-3.168,8l3.083,2.5,2.332-2.082,1.746-4.919.167.082A8.357,8.357,0,0,0,36.172,17.328Zm-29,3.082a14.178,14.178,0,0,0,5.087,6.75l3.831-5.582Zm33.25.668-1.5,4.25L41.25,23.16a8.836,8.836,0,0,0-.807-2.033ZM28.746,4.328l-8,11.418v5.917l11.668,1.582a14.316,14.316,0,0,0,2.167-7.5A14.272,14.272,0,0,0,28.746,4.328Zm-8.5,12.25L17,21.246l3.25.414Zm0-14.918A14.082,14.082,0,0,0,6.418,15.742,13.563,13.563,0,0,0,7,19.91l9.418,1.25,3.832-5.5Zm.5,0V14.91L28.332,4.078A13.961,13.961,0,0,0,20.75,1.66Z" transform="translate(0 0.836)" fill="#e3e9f2"/></g></g></svg>