<svg xmlns="http://www.w3.org/2000/svg" width="27.5" height="27.5" viewBox="0 0 27.5 27.5"><g transform="translate(-0.375)"><rect width="27.5" height="27.5" transform="translate(0.375)" fill="rgba(255,255,255,0.01)"/><g transform="translate(4.125 6.25)"><path d="M17.5,14.5V14H2.5a2.225,2.225,0,0,1-1-.5,2.45,2.45,0,0,1-.5-1V2.5a2.271,2.271,0,0,1,.5-1,2.384,2.384,0,0,1,1-.5h15a2.215,2.215,0,0,1,1,.5,2.438,2.438,0,0,1,.5,1v10a2.261,2.261,0,0,1-.5,1,2.4,2.4,0,0,1-1,.5v1A2.616,2.616,0,0,0,20,12.5V2.5A2.616,2.616,0,0,0,17.5,0H2.5A2.615,2.615,0,0,0,0,2.5v10A2.616,2.616,0,0,0,2.5,15h15Z" fill="#3b7cec"/><path d="M.512,1H6.989A.517.517,0,0,0,7.5.5.517.517,0,0,0,6.989,0H.512A.518.518,0,0,0,0,.5.518.518,0,0,0,.512,1" transform="translate(6.5 3.5)" fill="#3b7cec"/><path d="M.536,1H4.465A.53.53,0,0,0,5,.5.531.531,0,0,0,4.465,0H.536A.531.531,0,0,0,0,.5.531.531,0,0,0,.536,1" transform="translate(6.5 5.5)" fill="#3b7cec"/><path d="M.5,1h1A.511.511,0,0,0,2,.5.511.511,0,0,0,1.5,0H.5A.512.512,0,0,0,0,.5.512.512,0,0,0,.5,1" transform="translate(12 5.5)" fill="#3b7cec"/><path d="M9.635.144,1.753,7.475a1.715,1.715,0,0,1-1.227.462A.531.531,0,0,0,.526,9a2.8,2.8,0,0,0,1.927-.745L10.336.922a.552.552,0,0,0,.036-.745A.506.506,0,0,0,9.635.144Z" transform="translate(9.5 3.5)" fill="#3b7cec"/><path d="M.146.922l7.9,7.333A2.89,2.89,0,0,0,9.973,9a.531.531,0,0,0,0-1.063,1.876,1.876,0,0,1-1.229-.462L.884.144A.5.5,0,0,0,.146.18a.546.546,0,0,0,0,.742Z" transform="translate(0 3.5)" fill="#3b7cec"/></g></g></svg>