<svg xmlns="http://www.w3.org/2000/svg" width="53.376" height="67.5" viewBox="0 0 53.376 67.5"><g transform="translate(-0.812 -0.75)"><path d="M26.688,0h0A26.674,26.674,0,0,0,17.6,51.758L26.692,67.5l9.094-15.754A26.67,26.67,0,0,0,26.688,0Z" transform="translate(0.812 0.75)" fill="#3b7cec"/><path d="M19.8,0h0A19.8,19.8,0,1,1,0,19.8,19.8,19.8,0,0,1,19.8,0Z" transform="translate(7.703 7.641)" fill="#fdfefc"/><path d="M26.766,11.625H0L.016,0,5.363.008V4.359l4.543.028L9.914,6.6l3.1-.008V3.219l3.894,0,0-3.211h5.349V4.355l4.5.008,0,7.261ZM14.141,9.914v.668h1.621V9.914Zm-3.34,0v.668h1.621V9.914Zm12.285-.961v.922h2.238V8.953Zm-4.617,0v.922h2.238V8.953Zm-12.28,0v.922H8.426V8.953Zm-4.617,0v.922H3.809V8.953ZM14.141,8.2v.668h1.621V8.2Zm-3.34,0v.668h1.621V8.2ZM23.086,6.578V7.5h2.238V6.578Zm-4.617,0V7.5h2.238V6.578Zm-12.28,0V7.5H8.426V6.578Zm-4.617,0V7.5H3.809V6.578Zm12.569-.1v.668h1.621V6.477Zm0-1.719v.668h1.621V4.758ZM18.469,4.2v.922h2.238V4.2Zm-16.9,0v.922H3.809V4.2Zm16.9-2.375V2.75h2.238V1.828Zm-16.9,0V2.75H3.809V1.828Z" transform="translate(14.117 21.625)" fill="#3b7cec"/></g></svg>