<svg xmlns="http://www.w3.org/2000/svg" width="27.5" height="27.5" viewBox="0 0 27.5 27.5"><g transform="translate(-0.25)"><rect width="27.5" height="27.5" transform="translate(0.25)" fill="none"/><path d="M11.768,20.064H3.232A3.236,3.236,0,0,1,0,16.831v-7a.553.553,0,0,1,.012-.109,1.058,1.058,0,0,1,1.052-.953H12.545V6.118a5.044,5.044,0,0,0-10.088,0V7.5a.538.538,0,1,1-1.076,0V6.118a6.118,6.118,0,0,1,12.236,0V8.765h.319a1.058,1.058,0,0,1,1.052.953.359.359,0,0,1,.01.109v7A3.236,3.236,0,0,1,11.768,20.064ZM1.076,9.839V16.83a2.159,2.159,0,0,0,2.157,2.156h8.536a2.159,2.159,0,0,0,2.156-2.156V9.839ZM7.5,17.177a2.5,2.5,0,1,1,2.5-2.5A2.5,2.5,0,0,1,7.5,17.177Zm0-3.928a1.427,1.427,0,1,0,1.426,1.427A1.429,1.429,0,0,0,7.5,13.249Z" transform="translate(6.5 3.718)" fill="#3b7cec"/></g></svg>