<svg xmlns="http://www.w3.org/2000/svg" width="27.5" height="27.5" viewBox="0 0 27.5 27.5"><g transform="translate(-0.375)"><rect width="27.5" height="27.5" transform="translate(0.375)" fill="rgba(255,255,255,0.01)"/><g transform="translate(7.125 3.75)"><path d="M6.83,10.435H6.65A12,12,0,0,1,0,8.478V6.2A6.522,6.522,0,0,1,1.222,2.375,6.656,6.656,0,0,1,4.348,0a5.57,5.57,0,0,0,2.3.451h.18A5.544,5.544,0,0,0,9.131,0a6.656,6.656,0,0,1,3.126,2.375A6.522,6.522,0,0,1,13.479,6.2V8.478A12,12,0,0,1,6.83,10.435ZM4.34.47A6.143,6.143,0,0,0,.436,6.2V8.244A11.646,11.646,0,0,0,6.65,10h.18a11.641,11.641,0,0,0,6.214-1.756V6.2A6.146,6.146,0,0,0,9.14.469,6.1,6.1,0,0,1,6.831.887h-.18A6.11,6.11,0,0,1,4.34.47Z" transform="translate(0.071 9.348)" fill="#3b7cec" stroke="#3b7cec" stroke-miterlimit="10" stroke-width="1"/><path d="M4.13,8.261A4.131,4.131,0,1,1,8.261,4.13,4.135,4.135,0,0,1,4.13,8.261Zm0-7.826a3.7,3.7,0,1,0,3.7,3.7A3.7,3.7,0,0,0,4.13.435Z" transform="translate(2.681 0.217)" fill="#3b7cec" stroke="#3b7cec" stroke-miterlimit="10" stroke-width="1"/></g></g></svg>