<svg xmlns="http://www.w3.org/2000/svg" width="217.632" height="224.65" viewBox="0 0 217.632 224.65"><g transform="translate(-0.539 -0.911)"><circle cx="98.78" cy="98.78" r="98.78" transform="translate(20.61 28)" fill="rgba(228,234,242,0.2)"/><circle cx="98.78" cy="98.78" r="98.78" transform="translate(20.61 28)" fill="none"/><circle cx="98.78" cy="98.78" r="98.78" transform="translate(12.61 20)" fill="none" stroke-dasharray="186.585 24.39" stroke-linecap="round" stroke-linejoin="round" stroke-miterlimit="10" stroke-width="2" stroke="#e3e9f2"/><circle cx="98.78" cy="98.78" r="98.78" transform="translate(12.61 20)" fill="none"/><circle cx="56.098" cy="56.098" r="56.098" transform="translate(63.293 66.683)" fill="#f2f7fa"/><circle cx="56.098" cy="56.098" r="56.098" transform="translate(55.293 62.683)" fill="none" stroke-dasharray="68.293 7.317" stroke-linecap="round" stroke-linejoin="round" stroke-miterlimit="10" stroke-width="2.439" stroke="#e3e9f2"/><g transform="translate(83.89 91.28)"><path d="M0,44.188l3.8-11.4a21.715,21.715,0,1,1,8.572,8.144L0,44.188" transform="translate(0.235 10.484)" fill="#3b7cec"/><path d="M10.274,10.342a21.712,21.712,0,0,1,19.8,30.621l12.254,3.225-3.8-11.4A21.712,21.712,0,1,0,0,12.924a21.615,21.615,0,0,1,10.274-2.582" transform="translate(12.436 0.142)" fill="#bad2e0"/><path d="M5.641,2.821A2.821,2.821,0,1,1,2.821,0,2.82,2.82,0,0,1,5.641,2.821" transform="translate(9.637 29.287)" fill="#fff"/><path d="M5.641,2.821A2.821,2.821,0,1,1,2.821,0,2.82,2.82,0,0,1,5.641,2.821" transform="translate(19.979 29.287)" fill="#fff"/><path d="M5.641,2.821A2.821,2.821,0,1,1,2.821,0,2.82,2.82,0,0,1,5.641,2.821" transform="translate(30.321 29.287)" fill="#fff"/></g><path d="M17.835,8.322C12.456,7.007,11.609,6.159,10.289.776a1.015,1.015,0,0,0-1.972,0C7,6.155,6.159,7,.776,8.317a1.015,1.015,0,0,0,0,1.972C6.154,11.609,7,12.452,8.317,17.835a1.015,1.015,0,0,0,1.972,0c1.32-5.379,2.167-6.227,7.546-7.546a1.011,1.011,0,0,0,0-1.967Z" transform="translate(192.329 65.122)" fill="#e3e9f2"/><path d="M8.918,4.161C6.228,3.5,5.8,3.079,5.145.388a.507.507,0,0,0-.986,0C3.5,3.077,3.079,3.5.388,4.159a.507.507,0,0,0,0,.986C3.077,5.8,3.5,6.226,4.159,8.918a.507.507,0,0,0,.986,0C5.8,6.228,6.228,5.8,8.918,5.145a.506.506,0,0,0,0-.984Z" transform="translate(146.981 182.076)" fill="#e3e9f2"/><path d="M8.918,4.161C6.228,3.5,5.8,3.079,5.145.388a.507.507,0,0,0-.986,0C3.5,3.077,3.079,3.5.388,4.159a.507.507,0,0,0,0,.986C3.077,5.8,3.5,6.226,4.159,8.918a.507.507,0,0,0,.986,0C5.8,6.228,6.228,5.8,8.918,5.145a.506.506,0,0,0,0-.984Z" transform="translate(46.981 210.076)" fill="#e3e9f2"/><path d="M8.918,4.161C6.228,3.5,5.8,3.079,5.145.388a.507.507,0,0,0-.986,0C3.5,3.077,3.079,3.5.388,4.159a.507.507,0,0,0,0,.986C3.077,5.8,3.5,6.226,4.159,8.918a.507.507,0,0,0,.986,0C5.8,6.228,6.228,5.8,8.918,5.145a.506.506,0,0,0,0-.984Z" transform="translate(27.981 121.076)" fill="#e3e9f2"/><path d="M17.835,8.322C12.456,7.007,11.609,6.159,10.289.776a1.015,1.015,0,0,0-1.972,0C7,6.155,6.159,7,.776,8.317a1.015,1.015,0,0,0,0,1.972C6.154,11.609,7,12.452,8.317,17.835a1.015,1.015,0,0,0,1.972,0c1.32-5.379,2.167-6.227,7.546-7.546a1.011,1.011,0,0,0,0-1.967Z" transform="translate(19.158 57.805)" fill="#e3e9f2"/><g transform="translate(81.512 162.683)" fill="#fff" stroke="#e3e9f2" stroke-miterlimit="10" stroke-width="2.439"><circle cx="6.098" cy="6.098" r="6.098" stroke="none"/><circle cx="6.098" cy="6.098" r="4.878" fill="none"/></g><g transform="translate(118.098 57.805)" fill="#fff" stroke="#e3e9f2" stroke-miterlimit="10" stroke-width="2.439"><circle cx="6.098" cy="6.098" r="6.098" stroke="none"/><circle cx="6.098" cy="6.098" r="4.878" fill="none"/></g><g transform="translate(188.098 27.805)" fill="#fff" stroke="#e3e9f2" stroke-miterlimit="10" stroke-width="2.439"><circle cx="6.098" cy="6.098" r="6.098" stroke="none"/><circle cx="6.098" cy="6.098" r="4.878" fill="none"/></g><g transform="translate(8.098 97.805)" fill="#fff" stroke="#e3e9f2" stroke-miterlimit="10" stroke-width="2.439"><circle cx="6.098" cy="6.098" r="6.098" stroke="none"/><circle cx="6.098" cy="6.098" r="4.878" fill="none"/></g><g transform="translate(187.61 167.561)" fill="#fff" stroke="#e3e9f2" stroke-miterlimit="10" stroke-width="2.439"><circle cx="6.098" cy="6.098" r="6.098" stroke="none"/><circle cx="6.098" cy="6.098" r="4.878" fill="none"/></g><g transform="translate(41.5 140.698)"><path d="M-1.469,0A1.469,1.469,0,0,1,0,1.469V38.222l-7.111-7.111h-31.42A1.469,1.469,0,0,1-40,29.642V1.469A1.469,1.469,0,0,1-38.531,0H-1.469" transform="translate(-0.961 0.213)" fill="#e3e9f2"/><path d="M0,0H-10.667" transform="translate(-21.405 9)" fill="none" stroke="#fff" stroke-miterlimit="10" stroke-width="2"/><path d="M0,0H-22.222" transform="translate(-9.85 15)" fill="none" stroke="#fff" stroke-miterlimit="10" stroke-width="2"/><path d="M0,0H-22.222" transform="translate(-9.85 21)" fill="none" stroke="#fff" stroke-miterlimit="10" stroke-width="2"/></g><g transform="translate(140.5 0.698)"><path d="M1.469,0A1.469,1.469,0,0,0,0,1.469V38.222l7.111-7.111h31.42A1.469,1.469,0,0,0,40,29.642V1.469A1.469,1.469,0,0,0,38.531,0H1.469" transform="translate(0.961 0.213)" fill="#e3e9f2"/><path d="M0,0H10.667" transform="translate(9.85 9)" fill="none" stroke="#fff" stroke-miterlimit="10" stroke-width="2"/><path d="M0,0H22.222" transform="translate(9.85 15)" fill="none" stroke="#fff" stroke-miterlimit="10" stroke-width="2"/><path d="M0,0H22.222" transform="translate(9.85 21)" fill="none" stroke="#fff" stroke-miterlimit="10" stroke-width="2"/></g></g></svg>