<svg xmlns="http://www.w3.org/2000/svg" width="212" height="207.321" viewBox="0 0 212 207.321"><g transform="translate(0.781 1)"><circle cx="98.78" cy="98.78" r="98.78" transform="translate(12.61 8)" fill="rgba(228,234,242,0.2)"/><circle cx="98.78" cy="98.78" r="98.78" transform="translate(12.61 8)" fill="none"/><circle cx="98.78" cy="98.78" r="98.78" transform="translate(4.61 0)" fill="none" stroke-dasharray="186.585 24.39" stroke-linecap="round" stroke-linejoin="round" stroke-miterlimit="10" stroke-width="2" stroke="#e3e9f2"/><circle cx="98.78" cy="98.78" r="98.78" transform="translate(4.61 0)" fill="none"/><circle cx="56.098" cy="56.098" r="56.098" transform="translate(55.293 46.683)" fill="#f2f7fa"/><circle cx="56.098" cy="56.098" r="56.098" transform="translate(47.293 42.683)" fill="none" stroke-dasharray="68.293 7.317" stroke-linecap="round" stroke-linejoin="round" stroke-miterlimit="10" stroke-width="2.439" stroke="#e3e9f2"/><g transform="translate(78 75)"><path d="M36.841,0C44.064,0,49.266,6.18,49.92,13.544a13.483,13.483,0,0,1-.424,5.12,22.626,22.626,0,0,1-6.9,11.5L24.85,46,7.4,30.165a22.619,22.619,0,0,1-6.9-11.5,13.483,13.483,0,0,1-.424-5.12C.734,6.179,5.936,0,13.159,0A12.671,12.671,0,0,1,24.85,8.126,13.078,13.078,0,0,1,36.841,0Z" transform="translate(0.39 0.78)" fill="#d75a4a"/></g><path d="M17.835,8.322C12.456,7.007,11.609,6.159,10.289.776a1.015,1.015,0,0,0-1.972,0C7,6.155,6.159,7,.776,8.317a1.015,1.015,0,0,0,0,1.972C6.154,11.609,7,12.452,8.317,17.835a1.015,1.015,0,0,0,1.972,0c1.32-5.379,2.167-6.227,7.546-7.546a1.011,1.011,0,0,0,0-1.967Z" transform="translate(184.329 45.122)" fill="#e3e9f2"/><path d="M8.918,4.161C6.228,3.5,5.8,3.079,5.145.388a.507.507,0,0,0-.986,0C3.5,3.077,3.079,3.5.388,4.159a.507.507,0,0,0,0,.986C3.077,5.8,3.5,6.226,4.159,8.918a.507.507,0,0,0,.986,0C5.8,6.228,6.228,5.8,8.918,5.145a.506.506,0,0,0,0-.984Z" transform="translate(138.981 162.076)" fill="#e3e9f2"/><path d="M8.918,4.161C6.228,3.5,5.8,3.079,5.145.388a.507.507,0,0,0-.986,0C3.5,3.077,3.079,3.5.388,4.159a.507.507,0,0,0,0,.986C3.077,5.8,3.5,6.226,4.159,8.918a.507.507,0,0,0,.986,0C5.8,6.228,6.228,5.8,8.918,5.145a.506.506,0,0,0,0-.984Z" transform="translate(38.981 190.076)" fill="#e3e9f2"/><path d="M8.918,4.161C6.228,3.5,5.8,3.079,5.145.388a.507.507,0,0,0-.986,0C3.5,3.077,3.079,3.5.388,4.159a.507.507,0,0,0,0,.986C3.077,5.8,3.5,6.226,4.159,8.918a.507.507,0,0,0,.986,0C5.8,6.228,6.228,5.8,8.918,5.145a.506.506,0,0,0,0-.984Z" transform="translate(19.981 101.076)" fill="#e3e9f2"/><path d="M17.835,8.322C12.456,7.007,11.609,6.159,10.289.776a1.015,1.015,0,0,0-1.972,0C7,6.155,6.159,7,.776,8.317a1.015,1.015,0,0,0,0,1.972C6.154,11.609,7,12.452,8.317,17.835a1.015,1.015,0,0,0,1.972,0c1.32-5.379,2.167-6.227,7.546-7.546a1.011,1.011,0,0,0,0-1.967Z" transform="translate(11.158 37.805)" fill="#e3e9f2"/><g transform="translate(73.512 142.683)" fill="#fff" stroke="#e3e9f2" stroke-miterlimit="10" stroke-width="2.439"><circle cx="6.098" cy="6.098" r="6.098" stroke="none"/><circle cx="6.098" cy="6.098" r="4.878" fill="none"/></g><g transform="translate(110.098 37.805)" fill="#fff" stroke="#e3e9f2" stroke-miterlimit="10" stroke-width="2.439"><circle cx="6.098" cy="6.098" r="6.098" stroke="none"/><circle cx="6.098" cy="6.098" r="4.878" fill="none"/></g><g transform="translate(180.098 7.805)" fill="#fff" stroke="#e3e9f2" stroke-miterlimit="10" stroke-width="2.439"><circle cx="6.098" cy="6.098" r="6.098" stroke="none"/><circle cx="6.098" cy="6.098" r="4.878" fill="none"/></g><g transform="translate(0.098 77.805)" fill="#fff" stroke="#e3e9f2" stroke-miterlimit="10" stroke-width="2.439"><circle cx="6.098" cy="6.098" r="6.098" stroke="none"/><circle cx="6.098" cy="6.098" r="4.878" fill="none"/></g><g transform="translate(179.61 147.561)" fill="#fff" stroke="#e3e9f2" stroke-miterlimit="10" stroke-width="2.439"><circle cx="6.098" cy="6.098" r="6.098" stroke="none"/><circle cx="6.098" cy="6.098" r="4.878" fill="none"/></g><g transform="translate(0 145)"><circle cx="30" cy="30" r="30" transform="translate(0.219 0.321)" fill="#fff" stroke="#3b7cec" stroke-miterlimit="10" stroke-width="2" stroke-dasharray="41 1 1 5"/><g transform="translate(12.719 13.321)"><path d="M23.274,25.166l-5.619-2.809a2.143,2.143,0,0,1-1.185-1.916V18.235A8.4,8.4,0,0,0,17,17.552a12.942,12.942,0,0,0,1.746-3.519A1.765,1.765,0,0,0,20,12.353V10a1.755,1.755,0,0,0-.588-1.3v-3.4S20.111,0,12.941,0,6.471,5.294,6.471,5.294V8.7A1.755,1.755,0,0,0,5.882,10v2.353A1.764,1.764,0,0,0,6.7,13.834a11.667,11.667,0,0,0,2.128,4.4v2.151a2.142,2.142,0,0,1-1.117,1.881L2.459,25.129A4.718,4.718,0,0,0,0,29.272v1.9H25.882v-1.79a4.719,4.719,0,0,0-2.608-4.22" transform="translate(8.506 0.088)" fill="#8697cb"/><path d="M10.694,21.012l3.5-1.908c-.02-.019,0-.025.038-.021l1.712-.934a2.142,2.142,0,0,0,1.117-1.881V14.118a11.173,11.173,0,0,1-1.231-1.954v0c-.079-.158-.157-.324-.234-.5l-.032-.071c-.078-.178-.155-.362-.228-.555L15.32,11c-.064-.171-.123-.347-.18-.527-.015-.049-.031-.1-.045-.148-.059-.2-.116-.4-.164-.611a1.764,1.764,0,0,1-.814-1.481V5.882a1.755,1.755,0,0,1,.588-1.3V1.256A6.472,6.472,0,0,0,10.588,0C4.964,0,4.706,4.706,4.706,4.706V7.644A1.6,1.6,0,0,0,4.118,8.77V10.8a1.524,1.524,0,0,0,.7,1.278,8.436,8.436,0,0,0,2.212,3.8v1.857a1.851,1.851,0,0,1-.965,1.625L2.124,21.836A4.075,4.075,0,0,0,0,25.414v1.645H8.235v-1.9a4.718,4.718,0,0,1,2.459-4.142" transform="translate(0.271 4.206)" fill="#556080"/><path d="M14.118,7.059A7.059,7.059,0,1,1,7.059,0a7.059,7.059,0,0,1,7.059,7.059" transform="translate(20.859 18.912)" fill="#d75a4a"/><path d="M4.334,0A1.629,1.629,0,0,1,5.873,1.593a1.586,1.586,0,0,1-.05.6,2.662,2.662,0,0,1-.812,1.353L2.924,5.412.871,3.549A2.661,2.661,0,0,1,.059,2.2a1.586,1.586,0,0,1-.05-.6A1.629,1.629,0,0,1,1.548,0,1.491,1.491,0,0,1,2.924.956,1.539,1.539,0,0,1,4.334,0Z" transform="translate(24.977 23.295)" fill="#fff"/></g></g><g transform="translate(150)"><circle cx="30" cy="30" r="30" transform="translate(0.219 0.321)" fill="#fff" stroke="#3b7cec" stroke-miterlimit="10" stroke-width="2" stroke-dasharray="41 1 1 5"/><g transform="translate(12.719 13.321)"><path d="M23.274,25.166l-5.619-2.809a2.143,2.143,0,0,1-1.185-1.916V18.235A8.4,8.4,0,0,0,17,17.552a12.942,12.942,0,0,0,1.746-3.519A1.765,1.765,0,0,0,20,12.353V10a1.755,1.755,0,0,0-.588-1.3v-3.4S20.111,0,12.941,0,6.471,5.294,6.471,5.294V8.7A1.755,1.755,0,0,0,5.882,10v2.353A1.764,1.764,0,0,0,6.7,13.834a11.667,11.667,0,0,0,2.128,4.4v2.151a2.142,2.142,0,0,1-1.117,1.881L2.459,25.129A4.718,4.718,0,0,0,0,29.272v1.9H25.882v-1.79a4.719,4.719,0,0,0-2.608-4.22" transform="translate(8.506 0.088)" fill="#8697cb"/><path d="M10.694,21.012l3.5-1.908c-.02-.019,0-.025.038-.021l1.712-.934a2.142,2.142,0,0,0,1.117-1.881V14.118a11.173,11.173,0,0,1-1.231-1.954v0c-.079-.158-.157-.324-.234-.5l-.032-.071c-.078-.178-.155-.362-.228-.555L15.32,11c-.064-.171-.123-.347-.18-.527-.015-.049-.031-.1-.045-.148-.059-.2-.116-.4-.164-.611a1.764,1.764,0,0,1-.814-1.481V5.882a1.755,1.755,0,0,1,.588-1.3V1.256A6.472,6.472,0,0,0,10.588,0C4.964,0,4.706,4.706,4.706,4.706V7.644A1.6,1.6,0,0,0,4.118,8.77V10.8a1.524,1.524,0,0,0,.7,1.278,8.436,8.436,0,0,0,2.212,3.8v1.857a1.851,1.851,0,0,1-.965,1.625L2.124,21.836A4.075,4.075,0,0,0,0,25.414v1.645H8.235v-1.9a4.718,4.718,0,0,1,2.459-4.142" transform="translate(0.271 4.206)" fill="#556080"/><path d="M14.118,7.059A7.059,7.059,0,1,1,7.059,0a7.059,7.059,0,0,1,7.059,7.059" transform="translate(20.859 18.912)" fill="#71c386"/><path d="M4.643,2.143H2.857V.357a.357.357,0,0,0-.714,0V2.143H.357a.357.357,0,0,0,0,.714H2.143V4.643a.357.357,0,0,0,.714,0V2.857H4.643a.357.357,0,0,0,0-.714" transform="translate(25.418 23.471)" fill="#fff"/></g></g></g></svg>