<svg xmlns="http://www.w3.org/2000/svg" width="217.561" height="217.561" viewBox="0 0 217.561 217.561"><g transform="translate(9.89 9)"><circle cx="98.78" cy="98.78" r="98.78" transform="translate(0.11 1)" fill="#fff" stroke-dasharray="186.585 24.39" stroke-linecap="round" stroke-linejoin="round" stroke-miterlimit="10" stroke-width="4" stroke="#e3e9f2"/><g transform="translate(0.11 1)" fill="none" stroke="#fff" stroke-linecap="round" stroke-linejoin="round" stroke-miterlimit="10" stroke-width="10" stroke-dasharray="186.585 24.39"><circle cx="98.78" cy="98.78" r="98.78" stroke="none"/><circle cx="98.78" cy="98.78" r="103.78" fill="none"/></g><g transform="translate(41.5 40.887)"><g transform="translate(0 5)"><path d="M116,58A58,58,0,1,1,58,0a58,58,0,0,1,58,58" fill="#25ae88"/><path d="M95.728,90.75A25.381,25.381,0,0,0,70.486,68H58.594a2.73,2.73,0,0,1-2.73-2.73v-1.29a2.771,2.771,0,0,1,1.85-2.574C69.322,57.04,77.27,38,75.656,24.538A28.085,28.085,0,0,0,51.092.18,29.06,29.06,0,0,0,48.022,0l-.1,0A28,28,0,0,0,19.864,28c0,12.048,7.614,29.51,18.29,33.458A2.692,2.692,0,0,1,39.864,64v1.27A2.73,2.73,0,0,1,37.134,68H25.242A25.379,25.379,0,0,0,0,90.75a57.993,57.993,0,0,0,95.728,0" transform="translate(10.136 0.002)" fill="#fccf9d"/><path d="M36.538,13.218A35.731,35.731,0,0,1,55.444,25.864c-.032-.444-.046-.9-.1-1.326A28.089,28.089,0,0,0,30.782.178,29.6,29.6,0,0,0,27.712,0l-.1,0A27.984,27.984,0,0,0,0,23.164H.008c.358.5.708,1.014,1.092,1.5.14-.174.282-.346.424-.516,4-4.76,10.682-5.862,16.366-3.344a14,14,0,0,0,18.648-7.586" transform="translate(30.446 0.002)" fill="#6b5b4b"/><path d="M95.728,22.752A25.381,25.381,0,0,0,70.486,0H63.864l-16,16-16-16H25.242A25.379,25.379,0,0,0,0,22.752,57.927,57.927,0,0,0,47.864,48,57.927,57.927,0,0,0,95.728,22.752" transform="translate(10.136 68)" fill="#556080"/><path d="M0,14.784c1.37-.758,2.7-1.576,4-2.44V0H0V14.784" transform="translate(86 94)" fill="#424a60"/><path d="M4,14.784V0H0V12.344c1.3.864,2.63,1.682,4,2.44" transform="translate(26 94)" fill="#424a60"/></g><g transform="translate(21)"><path d="M54.75,30.354H0L3.284,6.8a7.867,7.867,0,0,1,7.8-6.8H43.671a7.867,7.867,0,0,1,7.8,6.8l3.284,23.55" transform="translate(9.827 0.531)" fill="#556080"/><path d="M51.611,0H.385L0,2.761a1.21,1.21,0,0,0,.227.046H51.768A1.21,1.21,0,0,0,52,2.761L51.611,0" transform="translate(11.204 18.25)" fill="#8697cb"/><path d="M53.178,0H.385L0,2.759a1.3,1.3,0,0,0,.244.049H53.318a1.3,1.3,0,0,0,.244-.049L53.178,0" transform="translate(10.421 23.865)" fill="#8697cb"/><path d="M65.981,9.656a7.156,7.156,0,0,0-4.212-6.317A7.184,7.184,0,0,0,60.365,0H5.615a7.184,7.184,0,0,0-1.4,3.338A7.156,7.156,0,0,0,0,9.656a6.3,6.3,0,0,0,4.293,5.955,29.453,29.453,0,0,0,57.395,0,6.3,6.3,0,0,0,4.293-5.955" transform="translate(4.212 30.885)" fill="#fccf9d"/><path d="M5.615,2.808A2.808,2.808,0,1,1,2.808,0,2.807,2.807,0,0,1,5.615,2.808" transform="translate(23.865 39.838)" fill="#414141"/><path d="M5.615,2.808A2.808,2.808,0,1,1,2.808,0,2.807,2.807,0,0,1,5.615,2.808" transform="translate(44.923 39.838)" fill="#414141"/><path d="M16.8,1.194A12.628,12.628,0,0,0,0,7.288,12.628,12.628,0,0,0,16.8,1.194" transform="translate(21.058 49.396)" fill="#414141"/><path d="M0,1.194A12.628,12.628,0,0,1,16.8,7.288,12.628,12.628,0,0,1,0,1.194" transform="translate(37.904 49.396)" fill="#414141"/><path d="M71.6,2.808H1.4A1.4,1.4,0,0,1,1.4,0H71.6a1.4,1.4,0,1,1,0,2.808" transform="translate(0 29.481)" fill="#3d324c"/></g></g><g transform="translate(0 0.698)"><g transform="translate(14 18.302)"><path d="M17.835,8.322C12.456,7.007,11.609,6.159,10.289.776a1.015,1.015,0,0,0-1.972,0C7,6.155,6.159,7,.776,8.317a1.015,1.015,0,0,0,0,1.972C6.154,11.609,7,12.452,8.317,17.835a1.015,1.015,0,0,0,1.972,0c1.32-5.379,2.167-6.227,7.546-7.546a1.011,1.011,0,0,0,0-1.967Z" transform="translate(125.829 0.423)" fill="#e3e9f2"/><g transform="translate(121.11 169.561)" fill="#fff" stroke="#e3e9f2" stroke-miterlimit="10" stroke-width="2.439"><circle cx="6.098" cy="6.098" r="6.098" stroke="none"/><circle cx="6.098" cy="6.098" r="4.878" fill="none"/></g><g transform="translate(40.11 9.561)" fill="#fff" stroke="#e3e9f2" stroke-miterlimit="10" stroke-width="2.439"><circle cx="6.098" cy="6.098" r="6.098" stroke="none"/><circle cx="6.098" cy="6.098" r="4.878" fill="none"/></g><g transform="translate(131.11 50.561)" fill="#fff" stroke="#e3e9f2" stroke-miterlimit="10" stroke-width="2.439"><circle cx="6.098" cy="6.098" r="6.098" stroke="none"/><circle cx="6.098" cy="6.098" r="4.878" fill="none"/></g><path d="M17.835,8.322C12.456,7.007,11.609,6.159,10.289.776a1.015,1.015,0,0,0-1.972,0C7,6.155,6.159,7,.776,8.317a1.015,1.015,0,0,0,0,1.972C6.154,11.609,7,12.452,8.317,17.835a1.015,1.015,0,0,0,1.972,0c1.32-5.379,2.167-6.227,7.546-7.546a1.011,1.011,0,0,0,0-1.967Z" transform="translate(45.829 160.423)" fill="#e3e9f2"/><path d="M8.918,4.161C6.228,3.5,5.8,3.079,5.145.388a.507.507,0,0,0-.986,0C3.5,3.077,3.079,3.5.388,4.159a.507.507,0,0,0,0,.986C3.077,5.8,3.5,6.226,4.159,8.918a.507.507,0,0,0,.986,0C5.8,6.228,6.228,5.8,8.918,5.145a.506.506,0,0,0,0-.984Z" transform="translate(130.481 134.076)" fill="#e3e9f2"/><path d="M8.918,4.161C6.228,3.5,5.8,3.079,5.145.388a.507.507,0,0,0-.986,0C3.5,3.077,3.079,3.5.388,4.159a.507.507,0,0,0,0,.986C3.077,5.8,3.5,6.226,4.159,8.918a.507.507,0,0,0,.986,0C5.8,6.228,6.228,5.8,8.918,5.145a.506.506,0,0,0,0-.984Z" transform="translate(160.481 94.076)" fill="#e3e9f2"/><path d="M8.918,4.161C6.228,3.5,5.8,3.079,5.145.388a.507.507,0,0,0-.986,0C3.5,3.077,3.079,3.5.388,4.159a.507.507,0,0,0,0,.986C3.077,5.8,3.5,6.226,4.159,8.918a.507.507,0,0,0,.986,0C5.8,6.228,6.228,5.8,8.918,5.145a.506.506,0,0,0,0-.984Z" transform="translate(0.481 94.076)" fill="#e3e9f2"/></g><g transform="translate(0.11 0.302)"><circle cx="30" cy="30" r="30" fill="#fff" stroke="#3b7cec" stroke-miterlimit="10" stroke-width="2" stroke-dasharray="41 1 1 5"/><g transform="translate(12.5 18.64)"><path d="M23.434,22.256H2.66A2.632,2.632,0,0,1,0,19.6V10.642a2.632,2.632,0,0,1,2.66-2.66H3.992V6.651a2.631,2.631,0,0,1,2.66-2.66H7.982V2.66A2.632,2.632,0,0,1,10.643,0H31.467a2.648,2.648,0,0,1,1.894.807,2.523,2.523,0,0,1,.716,1.855v8.951a2.632,2.632,0,0,1-2.66,2.66H30.085v1.331a2.632,2.632,0,0,1-2.66,2.66H26.094V19.6A2.631,2.631,0,0,1,23.434,22.256ZM2.607,9.314a1.349,1.349,0,0,0-1.331,1.331v9A1.349,1.349,0,0,0,2.607,20.98H23.434a1.349,1.349,0,0,0,1.331-1.331v-9a1.349,1.349,0,0,0-1.331-1.331ZM17.447,6.5h.563l-.1.922a2.492,2.492,0,0,1,.871.307.879.879,0,0,0,.181.13.918.918,0,0,1,.177.126h4.3a2.632,2.632,0,0,1,2.66,2.66v6.294h1.332a1.349,1.349,0,0,0,1.331-1.331l0-8.954a1.349,1.349,0,0,0-1.331-1.331H6.6A1.349,1.349,0,0,0,5.27,6.654V8.038H15.4a2.9,2.9,0,0,1,.665-.41,1.9,1.9,0,0,1,.971-.2l.05-.564a.4.4,0,0,1,.1-.257A.386.386,0,0,1,17.447,6.5Zm3.991-3.991H22l-.1.921a2.52,2.52,0,0,1,.871.307.864.864,0,0,0,.181.131.915.915,0,0,1,.177.126h4.3a2.632,2.632,0,0,1,2.66,2.66v6.294h1.382A1.349,1.349,0,0,0,32.8,11.616l0-8.9a1.349,1.349,0,0,0-1.331-1.331H10.643A1.349,1.349,0,0,0,9.311,2.715V4.046H19.392l.011-.008a2.9,2.9,0,0,1,.654-.4,1.914,1.914,0,0,1,.972-.2l.05-.563a.4.4,0,0,1,.1-.257A.389.389,0,0,1,21.438,2.509Z" transform="translate(0.513 0.204)" fill="#9dabc0"/><path d="M2.358,8.848H1.795l.15-.863A3.706,3.706,0,0,1,.87,7.678,2.846,2.846,0,0,1,0,7.115l.461-.665.1-.1L.614,6.3a.311.311,0,0,1,.2-.05.472.472,0,0,1,.257.05,1.136,1.136,0,0,0,.256.153l.163.082.144.072.014.007A2.341,2.341,0,0,0,2,6.757l.154-1.792-.1-.024a2.587,2.587,0,0,1-.564-.18A3.711,3.711,0,0,1,.87,4.4,1.624,1.624,0,0,1,.41,3.84a2.2,2.2,0,0,1-.154-.871A1.984,1.984,0,0,1,.41,2.253a1.96,1.96,0,0,1,.46-.665c.047-.035.093-.071.141-.11a1.845,1.845,0,0,1,.576-.35,1.9,1.9,0,0,1,.972-.2L2.61.36A.39.39,0,0,1,2.713.1.385.385,0,0,1,2.969,0h.564l-.1.921a2.5,2.5,0,0,1,.871.308,3.193,3.193,0,0,1,.614.46L4.558,2.2l-.077.076L4.4,2.353a.309.309,0,0,1-.2.05.189.189,0,0,1-.077-.025.189.189,0,0,0-.077-.025.253.253,0,0,0-.1-.052.255.255,0,0,1-.1-.05A.86.86,0,0,0,3.71,2.2a.945.945,0,0,1-.124-.049.288.288,0,0,0-.128-.057.743.743,0,0,1-.128-.045L3.176,3.732l.23.076.23.076a1.743,1.743,0,0,1,.23.1,1.747,1.747,0,0,0,.231.1c.061.04.121.072.178.1a.96.96,0,0,1,.232.153l.307.307a.567.567,0,0,1,.153.3l.023.089a1.751,1.751,0,0,1,.08.474,2.381,2.381,0,0,1-.153.871,2.158,2.158,0,0,1-.461.716,2.593,2.593,0,0,1-.717.511,2.67,2.67,0,0,1-.971.256l-.05.615a.4.4,0,0,1-.1.257A.389.389,0,0,1,2.358,8.848Zm.715-3.734h0L2.919,6.7a.838.838,0,0,0,.768-.868.623.623,0,0,0-.153-.461.981.981,0,0,0-.461-.257ZM2.459,1.991a1.588,1.588,0,0,1-.181.049.758.758,0,0,0-.176.055,1.037,1.037,0,0,0-.257.153.235.235,0,0,0-.111.132.241.241,0,0,1-.043.072.47.47,0,0,0-.05.256.648.648,0,0,0,.2.46.782.782,0,0,0,.352.255l.108.053.154-1.485Z" transform="translate(10.947 10.801)" fill="#9dabc0"/></g></g></g></g></svg>