<svg xmlns="http://www.w3.org/2000/svg" width="217.561" height="217.561" viewBox="0 0 217.561 217.561"><g transform="translate(9.89 9)"><circle cx="98.78" cy="98.78" r="98.78" transform="translate(0.11 1)" fill="#fff" stroke-dasharray="186.585 24.39" stroke-linecap="round" stroke-linejoin="round" stroke-miterlimit="10" stroke-width="4" stroke="#e3e9f2"/><g transform="translate(0.11 1)" fill="none" stroke="#fff" stroke-linecap="round" stroke-linejoin="round" stroke-miterlimit="10" stroke-width="10" stroke-dasharray="186.585 24.39"><circle cx="98.78" cy="98.78" r="98.78" stroke="none"/><circle cx="98.78" cy="98.78" r="103.78" fill="none"/></g><g transform="translate(41.5 45.887)"><path d="M116,58A58,58,0,1,1,58,0a58,58,0,0,1,58,58" fill="#88c057"/><path d="M95.728,90.75A25.381,25.381,0,0,0,70.486,68H58.594a2.73,2.73,0,0,1-2.73-2.73v-1.29a2.771,2.771,0,0,1,1.85-2.574C69.322,57.04,77.27,38,75.656,24.538A28.085,28.085,0,0,0,51.092.18,29.06,29.06,0,0,0,48.022,0l-.1,0A28,28,0,0,0,19.864,28c0,12.048,7.614,29.51,18.29,33.458A2.692,2.692,0,0,1,39.864,64v1.27A2.73,2.73,0,0,1,37.134,68H25.242A25.381,25.381,0,0,0,0,90.75a57.993,57.993,0,0,0,95.728,0" transform="translate(10.136 0.002)" fill="#fccf9d"/><path d="M36.538,13.218A35.731,35.731,0,0,1,55.444,25.864c-.032-.444-.046-.9-.1-1.326A28.089,28.089,0,0,0,30.782.178,29.6,29.6,0,0,0,27.712,0l-.1,0A27.984,27.984,0,0,0,0,23.164H.01c.356.5.706,1.014,1.09,1.5.14-.174.28-.346.424-.516,4-4.76,10.682-5.862,16.366-3.344a14,14,0,0,0,18.648-7.586" transform="translate(30.446 0.002)" fill="#c6411e"/><path d="M0,0H8V16H0V0Z" transform="translate(36 68)" fill="#424a60"/><path d="M0,0H8V16H0V0Z" transform="translate(72 68)" fill="#424a60"/><path d="M0,16.766v6.88A57.718,57.718,0,0,0,30,32a57.718,57.718,0,0,0,30-8.354V0H0V16.766" transform="translate(28 84)" fill="#556080"/></g><g transform="translate(0 0.698)"><g transform="translate(14 18.302)"><path d="M17.835,8.322C12.456,7.007,11.609,6.159,10.289.776a1.015,1.015,0,0,0-1.972,0C7,6.155,6.159,7,.776,8.317a1.015,1.015,0,0,0,0,1.972C6.154,11.609,7,12.452,8.317,17.835a1.015,1.015,0,0,0,1.972,0c1.32-5.379,2.167-6.227,7.546-7.546a1.011,1.011,0,0,0,0-1.967Z" transform="translate(125.829 0.423)" fill="#e3e9f2"/><g transform="translate(121.11 169.561)" fill="#fff" stroke="#e3e9f2" stroke-miterlimit="10" stroke-width="2.439"><circle cx="6.098" cy="6.098" r="6.098" stroke="none"/><circle cx="6.098" cy="6.098" r="4.878" fill="none"/></g><g transform="translate(40.11 9.561)" fill="#fff" stroke="#e3e9f2" stroke-miterlimit="10" stroke-width="2.439"><circle cx="6.098" cy="6.098" r="6.098" stroke="none"/><circle cx="6.098" cy="6.098" r="4.878" fill="none"/></g><g transform="translate(131.11 50.561)" fill="#fff" stroke="#e3e9f2" stroke-miterlimit="10" stroke-width="2.439"><circle cx="6.098" cy="6.098" r="6.098" stroke="none"/><circle cx="6.098" cy="6.098" r="4.878" fill="none"/></g><path d="M17.835,8.322C12.456,7.007,11.609,6.159,10.289.776a1.015,1.015,0,0,0-1.972,0C7,6.155,6.159,7,.776,8.317a1.015,1.015,0,0,0,0,1.972C6.154,11.609,7,12.452,8.317,17.835a1.015,1.015,0,0,0,1.972,0c1.32-5.379,2.167-6.227,7.546-7.546a1.011,1.011,0,0,0,0-1.967Z" transform="translate(45.829 160.423)" fill="#e3e9f2"/><path d="M8.918,4.161C6.228,3.5,5.8,3.079,5.145.388a.507.507,0,0,0-.986,0C3.5,3.077,3.079,3.5.388,4.159a.507.507,0,0,0,0,.986C3.077,5.8,3.5,6.226,4.159,8.918a.507.507,0,0,0,.986,0C5.8,6.228,6.228,5.8,8.918,5.145a.506.506,0,0,0,0-.984Z" transform="translate(130.481 134.076)" fill="#e3e9f2"/><path d="M8.918,4.161C6.228,3.5,5.8,3.079,5.145.388a.507.507,0,0,0-.986,0C3.5,3.077,3.079,3.5.388,4.159a.507.507,0,0,0,0,.986C3.077,5.8,3.5,6.226,4.159,8.918a.507.507,0,0,0,.986,0C5.8,6.228,6.228,5.8,8.918,5.145a.506.506,0,0,0,0-.984Z" transform="translate(160.481 94.076)" fill="#e3e9f2"/><path d="M8.918,4.161C6.228,3.5,5.8,3.079,5.145.388a.507.507,0,0,0-.986,0C3.5,3.077,3.079,3.5.388,4.159a.507.507,0,0,0,0,.986C3.077,5.8,3.5,6.226,4.159,8.918a.507.507,0,0,0,.986,0C5.8,6.228,6.228,5.8,8.918,5.145a.506.506,0,0,0,0-.984Z" transform="translate(0.481 94.076)" fill="#e3e9f2"/></g><g transform="translate(0.11 0.302)"><circle cx="30" cy="30" r="30" fill="#fff" stroke="#3b7cec" stroke-miterlimit="10" stroke-width="2" stroke-dasharray="41 1 1 5"/><path d="M22.769,24.984h0l-6.2-6.208.67-.671-1.9-1.9a9.109,9.109,0,0,1-3.906,2.031,9.481,9.481,0,0,1-2.193.258A9.228,9.228,0,0,1,0,9.251,9.207,9.207,0,0,1,2.716,2.693,9.07,9.07,0,0,1,5.1,1.019,9.449,9.449,0,0,1,9.345,0,9.05,9.05,0,0,1,12.7.638a9.211,9.211,0,0,1,5.829,8.3,9.266,9.266,0,0,1-2.293,6.376l1.9,1.9.665-.669L25,22.739l-2.23,2.245ZM9.274,1.877A7.372,7.372,0,0,0,4.066,14.471,7.376,7.376,0,1,0,9.274,1.877ZM13.6,9.941a.634.634,0,0,1-.63-.637,3.7,3.7,0,0,0-3.7-3.7.629.629,0,0,1,0-1.258A4.95,4.95,0,0,1,14.237,9.3.637.637,0,0,1,13.6,9.941Z" transform="translate(18 18)" fill="#9dabc0"/></g><g transform="translate(63.81 26.305)"><g transform="translate(0 0)"><g transform="translate(0 0)"><g transform="translate(0 0)"><path d="M67.76,3.581A31.393,31.393,0,0,0,66.882,0H5.5A31.393,31.393,0,0,0,4.62,3.581,7.85,7.85,0,0,0,0,10.51a6.905,6.905,0,0,0,4.709,6.533,32.31,32.31,0,0,0,62.961,0A6.905,6.905,0,0,0,72.38,10.51a7.85,7.85,0,0,0-4.62-6.93" transform="translate(0 40.04)" fill="#fccf9d"/><path d="M6.16,3.08A3.08,3.08,0,1,1,3.08,0,3.08,3.08,0,0,1,6.16,3.08" transform="translate(23.1 49.78)" fill="#414141"/><path d="M15.788,1.123A11.867,11.867,0,0,0,0,6.852,11.871,11.871,0,0,0,15.788,1.123" transform="translate(20.738 63.14)" fill="#414141"/><path d="M0,1.123A11.868,11.868,0,0,1,15.788,6.852,11.87,11.87,0,0,1,0,1.123" transform="translate(36.572 63.14)" fill="#414141"/><path d="M12.32,15.4C5.067,15.4,0,9.7,0,1.54a1.54,1.54,0,0,1,3.08,0c0,5.367,2.858,10.78,9.24,10.78a1.54,1.54,0,1,1,0,3.08" transform="translate(52.36 51.32)" fill="#3d324c"/><path d="M67.76,6.16H3.08A3.08,3.08,0,0,1,3.08,0H67.76a3.08,3.08,0,1,1,0,6.16" transform="translate(1.54 33.88)" fill="#3d324c"/><path d="M60.06,33.88H0l1.078-2.586A37.625,37.625,0,0,0,0,0H60.06a37.625,37.625,0,0,0-1.078,31.294L60.06,33.88" transform="translate(6.16 0)" fill="#556080"/><path d="M52.274,0H.136Q.131,1.541,0,3.08H52.409Q52.278,1.542,52.274,0" transform="translate(9.985 16.94)" fill="#8697cb"/><path d="M12.32,6.16A6.16,6.16,0,1,1,6.16,0a6.16,6.16,0,0,1,6.16,6.16Z" transform="translate(41.58 46.701)" fill="#d0e8f9"/><path d="M12.32,6.16A6.16,6.16,0,1,1,6.16,0a6.16,6.16,0,0,1,6.16,6.16Z" transform="translate(41.58 46.701)" fill="none" stroke="#556080" stroke-miterlimit="10" stroke-width="3.08"/></g></g></g></g></g></g></svg>