<svg xmlns="http://www.w3.org/2000/svg" width="210.073" height="206.561" viewBox="0 0 210.073 206.561"><g transform="translate(-0.098 1)"><circle cx="98.78" cy="98.78" r="98.78" transform="translate(12.61 8)" fill="rgba(228,234,242,0.2)"/><circle cx="98.78" cy="98.78" r="98.78" transform="translate(12.61 8)" fill="none"/><circle cx="98.78" cy="98.78" r="98.78" transform="translate(4.61 0)" fill="none" stroke-dasharray="186.585 24.39" stroke-linecap="round" stroke-linejoin="round" stroke-miterlimit="10" stroke-width="2" stroke="#e3e9f2"/><circle cx="98.78" cy="98.78" r="98.78" transform="translate(4.61 0)" fill="none"/><circle cx="56.098" cy="56.098" r="56.098" transform="translate(55.293 46.683)" fill="#f2f7fa"/><circle cx="56.098" cy="56.098" r="56.098" transform="translate(47.293 42.683)" fill="none" stroke-dasharray="68.293 7.317" stroke-linecap="round" stroke-linejoin="round" stroke-miterlimit="10" stroke-width="2.439" stroke="#e3e9f2"/><path d="M1,36.591a1,1,0,0,1-.932-1.367l9.719-24.87a1.01,1.01,0,0,1,.567-.566L35.223.069A.987.987,0,0,1,35.588,0a1,1,0,0,1,.933,1.355l-9.4,25.183a.99.99,0,0,1-.589.588L1.346,36.53A1.05,1.05,0,0,1,1,36.591ZM11.948,11.312l-.452.176L2.748,33.865,25.4,25.4l.171-.458L11.948,11.312Z" transform="translate(85.098 80.485)" fill="#9dabc0"/><path d="M17.835,8.322C12.456,7.007,11.609,6.159,10.289.776a1.015,1.015,0,0,0-1.972,0C7,6.155,6.159,7,.776,8.317a1.015,1.015,0,0,0,0,1.972C6.154,11.609,7,12.452,8.317,17.835a1.015,1.015,0,0,0,1.972,0c1.32-5.379,2.167-6.227,7.546-7.546a1.011,1.011,0,0,0,0-1.967Z" transform="translate(184.329 45.122)" fill="#e3e9f2"/><path d="M8.918,4.161C6.228,3.5,5.8,3.079,5.145.388a.507.507,0,0,0-.986,0C3.5,3.077,3.079,3.5.388,4.159a.507.507,0,0,0,0,.986C3.077,5.8,3.5,6.226,4.159,8.918a.507.507,0,0,0,.986,0C5.8,6.228,6.228,5.8,8.918,5.145a.506.506,0,0,0,0-.984Z" transform="translate(138.981 162.076)" fill="#e3e9f2"/><path d="M8.918,4.161C6.228,3.5,5.8,3.079,5.145.388a.507.507,0,0,0-.986,0C3.5,3.077,3.079,3.5.388,4.159a.507.507,0,0,0,0,.986C3.077,5.8,3.5,6.226,4.159,8.918a.507.507,0,0,0,.986,0C5.8,6.228,6.228,5.8,8.918,5.145a.506.506,0,0,0,0-.984Z" transform="translate(38.981 190.076)" fill="#e3e9f2"/><path d="M8.918,4.161C6.228,3.5,5.8,3.079,5.145.388a.507.507,0,0,0-.986,0C3.5,3.077,3.079,3.5.388,4.159a.507.507,0,0,0,0,.986C3.077,5.8,3.5,6.226,4.159,8.918a.507.507,0,0,0,.986,0C5.8,6.228,6.228,5.8,8.918,5.145a.506.506,0,0,0,0-.984Z" transform="translate(19.981 101.076)" fill="#e3e9f2"/><path d="M17.835,8.322C12.456,7.007,11.609,6.159,10.289.776a1.015,1.015,0,0,0-1.972,0C7,6.155,6.159,7,.776,8.317a1.015,1.015,0,0,0,0,1.972C6.154,11.609,7,12.452,8.317,17.835a1.015,1.015,0,0,0,1.972,0c1.32-5.379,2.167-6.227,7.546-7.546a1.011,1.011,0,0,0,0-1.967Z" transform="translate(11.158 37.805)" fill="#e3e9f2"/><g transform="translate(73.512 142.683)" fill="#fff" stroke="#e3e9f2" stroke-miterlimit="10" stroke-width="2.439"><circle cx="6.098" cy="6.098" r="6.098" stroke="none"/><circle cx="6.098" cy="6.098" r="4.878" fill="none"/></g><g transform="translate(110.098 37.805)" fill="#fff" stroke="#e3e9f2" stroke-miterlimit="10" stroke-width="2.439"><circle cx="6.098" cy="6.098" r="6.098" stroke="none"/><circle cx="6.098" cy="6.098" r="4.878" fill="none"/></g><g transform="translate(180.098 7.805)" fill="#fff" stroke="#e3e9f2" stroke-miterlimit="10" stroke-width="2.439"><circle cx="6.098" cy="6.098" r="6.098" stroke="none"/><circle cx="6.098" cy="6.098" r="4.878" fill="none"/></g><g transform="translate(0.098 77.805)" fill="#fff" stroke="#e3e9f2" stroke-miterlimit="10" stroke-width="2.439"><circle cx="6.098" cy="6.098" r="6.098" stroke="none"/><circle cx="6.098" cy="6.098" r="4.878" fill="none"/></g><g transform="translate(179.61 147.561)" fill="#fff" stroke="#e3e9f2" stroke-miterlimit="10" stroke-width="2.439"><circle cx="6.098" cy="6.098" r="6.098" stroke="none"/><circle cx="6.098" cy="6.098" r="4.878" fill="none"/></g><path d="M9,26.634c-4,0-8.048-1.124-8.048-3.273,0-.724.47-1.746,2.711-2.509a.666.666,0,0,1,.429,1.261c-1.243.422-1.809.942-1.809,1.247,0,.659,2.37,1.94,6.715,1.94s6.715-1.282,6.715-1.94c0-.313-.589-.844-1.882-1.272a.666.666,0,1,1,.419-1.264c2.31.763,2.8,1.8,2.8,2.537C17.048,25.509,13,26.634,9,26.634Zm0-4.2a.67.67,0,0,1-.418-.148c-4.668-3.75-6.8-7.249-7.758-9.524a8.928,8.928,0,0,1-.6-1.771c-.038-.163-.057-.264-.062-.3a9,9,0,1,1,17.68,0c0,.029-.022.126-.062.3a8.856,8.856,0,0,1-.6,1.771c-.964,2.275-3.092,5.774-7.758,9.524A.67.67,0,0,1,9,22.435Zm0-21.1a7.671,7.671,0,0,0-7.529,9.122l0,.015,0,.017c.011.059.025.127.043.2l0,.007a7.588,7.588,0,0,0,.517,1.52l0,.008.005.011A23.428,23.428,0,0,0,9,20.906a23.443,23.443,0,0,0,6.954-8.673l0-.009a.058.058,0,0,1,0-.01,7.588,7.588,0,0,0,.517-1.52l0-.007c.027-.114.04-.178.043-.2l0-.015c0-.006,0-.011,0-.016A7.672,7.672,0,0,0,9,1.332Zm.106,13.016A5.485,5.485,0,1,1,12.172,4.316a.666.666,0,1,1-.745,1.1,4.142,4.142,0,1,0,1.5,1.816.666.666,0,1,1,1.225-.522,5.488,5.488,0,0,1-5.046,7.633Z" transform="translate(166.546 111.892)" fill="#9dabc0"/><path d="M20.023,22H1.976A1.979,1.979,0,0,1,0,20.023l.067-1.585c1.605-3.379,4.033-4.157,4.3-4.235l.183-.024H5.844a1.893,1.893,0,0,0,1.891-1.89v-.614A6.842,6.842,0,0,1,6.605,9.562l-.049-.156a2.292,2.292,0,0,1-.485-2.773,1.438,1.438,0,0,1,.092-.15l0-.74c0-.473,0-.977.006-1.486A4.616,4.616,0,0,1,6.9,1.84,4.1,4.1,0,0,1,9.3.206,6.889,6.889,0,0,1,11,0,7.508,7.508,0,0,1,12.4.133a4.255,4.255,0,0,1,2.327,1.212,4.46,4.46,0,0,1,1.108,2.993c0,.407,0,.813,0,1.206,0,.133,0,.266,0,.4v.545a.54.54,0,0,1,.041.068l.007.013a2.258,2.258,0,0,1-.335,2.738l-.112.1A7.216,7.216,0,0,1,14.266,11.7v.585a1.893,1.893,0,0,0,1.89,1.891l1.471.024a7.621,7.621,0,0,1,4.3,4.234l.068.3v1.289A1.979,1.979,0,0,1,20.023,22ZM4.663,15.555h0a6.4,6.4,0,0,0-3.288,3.336v1.132a.6.6,0,0,0,.6.6H20.023a.6.6,0,0,0,.6-.6V18.891a6.4,6.4,0,0,0-3.289-3.336H16.156a3.269,3.269,0,0,1-3.265-3.265V11.209l.161-.193a5.791,5.791,0,0,0,1.1-2.082,1.011,1.011,0,0,1,.373-.551l.005,0A.92.92,0,0,0,14.7,7.267l-.007-.01a1.051,1.051,0,0,1-.232-.666V5.626c0-.415,0-.843,0-1.266a3.084,3.084,0,0,0-.733-2.068,2.916,2.916,0,0,0-1.586-.806A6.072,6.072,0,0,0,11,1.375a5.551,5.551,0,0,0-1.363.166,2.724,2.724,0,0,0-1.6,1.069,3.265,3.265,0,0,0-.5,1.689c-.005.444-.005.9,0,1.444v.841a.98.98,0,0,1-.221.655A.931.931,0,0,0,7.476,8.39a1.2,1.2,0,0,1,.415.677,5.619,5.619,0,0,0,1.058,1.925l.159.193v1.105a3.269,3.269,0,0,1-3.265,3.265H4.663Z" transform="translate(69.805 11.878)" fill="#9dabc0"/><path d="M12.506,25a12.233,12.233,0,0,1-8.8-3.564A11.735,11.735,0,0,1,0,12.724,11.775,11.775,0,0,1,3.705,4a12.23,12.23,0,0,1,8.8-3.564,12.278,12.278,0,0,1,8.788,3.514A11.644,11.644,0,0,1,25,12.634a11.853,11.853,0,0,1-3.68,8.737A12.159,12.159,0,0,1,12.506,25ZM5.3,4.672,4.689,5.1l-.673.172a10.984,10.984,0,0,0-2.783,7.377,10.658,10.658,0,0,0,3.334,7.9,11.048,11.048,0,0,0,7.965,3.211,10.9,10.9,0,0,0,7.952-3.272,10.807,10.807,0,0,0,3.3-7.928,10.5,10.5,0,0,0-3.358-7.793A11.04,11.04,0,0,0,12.53,1.56L11.3,4.072l1.336.269L13.683,3.3l1.838.122.367.98-1.1,1.1v.662l.686.134.319-.515L17,5.027l-.036.514.453.784-.539.564.343.33-.809.049.331.661-1.753.833.27.992h-.552l-.246-.98L13.18,8.752l-.233.38-.527-.245-.858.858.686.822-.024.906.723.539,4.215.478,1.336.944-.158,2.341-2.9,2.9a3.753,3.753,0,0,0-.553,1.569,5.611,5.611,0,0,0-.183,1.728l-.442.5c-.346-.683-.8-1.735-1.336-3.125a14.531,14.531,0,0,1-.343-1.839l-.035-.3,0-.02q-.091-.762-.182-1.533l-1.839-1.617,1.63-1.922-.674-.969a9.265,9.265,0,0,1-2.022-.563A9.5,9.5,0,0,1,7.849,9.183l.637,1.237-.428.184L7.065,8.739,7.262,7,6.956,5.774,6,4.844Z" transform="translate(21.207 119.817)" fill="#9dabc0"/></g></svg>